<svg id="Layer_1" data-name="Layer 1" xmlns="http://www.w3.org/2000/svg" viewBox="0 0 500 269.25"><defs><style>.cls-1{fill:#fc2740;}.cls-2{fill:#fff;}</style></defs><path class="cls-1" d="M250,260.74c-59.45,0-119.55-11.35-164.88-31.12-50.62-22.09-78.5-53-78.5-87.08v-41A20.19,20.19,0,0,1,26.81,81.31H473.19a20.19,20.19,0,0,1,20.19,20.19v41c0,34.07-27.88,65-78.5,87.08C369.55,249.39,309.46,260.74,250,260.74Z"/><path class="cls-2" d="M473.22,101.46h-66v76.07h24.6V159h17.07v18.57h8.9c9.86-10.7,15.46-22.46,15.46-35.07Zm-24.36,40.18H431.79v-23h17.07Z"/><rect class="cls-2" x="173.17" y="8.51" width="46.96" height="52.28" rx="13.47"/><rect class="cls-2" x="279.87" y="8.51" width="46.96" height="52.28" rx="13.47" transform="translate(606.7 69.31) rotate(180)"/><polygon class="cls-2" points="98.88 101.46 98.88 177.61 165.15 177.6 165.15 101.46 140.55 101.46 140.55 160.33 123.49 160.33 123.49 101.46 98.88 101.46"/><polygon class="cls-2" points="255.74 101.46 255.74 118.78 273.83 118.78 273.83 177.61 298.44 177.61 298.44 118.78 316.53 118.78 316.53 101.46 255.74 101.46"/><path class="cls-2" d="M352.37,177.61V155h17.06v22.63H394V158.16l-11.85-11.84L394,134.47v-33H327.76v76.14Zm0-58.87h17.06v18.92H352.37Z"/><path class="cls-2" d="M51.46,153.15h29V135.89h-29V118.72H87.65V101.54H26.85v41c0,12.61,5.61,24.37,15.47,35.07h9.14Z"/><polygon class="cls-2" points="219.9 101.47 219.9 137.5 200.49 101.47 178.23 101.47 178.23 177.61 202.84 177.61 202.84 141.7 222.21 177.61 244.5 177.61 244.5 101.46 219.9 101.47"/></svg>