<svg id="Layer_1" data-name="Layer 1" xmlns="http://www.w3.org/2000/svg" viewBox="0 0 500 269.25"><defs><style>.cls-1{fill:#fff;}.cls-2{fill:#fc2740;}</style></defs><rect class="cls-1" x="173.17" y="8.51" width="46.96" height="52.28" rx="13.47"/><rect class="cls-1" x="279.87" y="8.51" width="46.96" height="52.28" rx="13.47" transform="translate(606.7 69.31) rotate(180)"/><rect class="cls-2" x="431.79" y="118.66" width="17.06" height="22.97"/><rect class="cls-2" x="352.37" y="118.74" width="17.06" height="18.92"/><path class="cls-2" d="M473.19,81.31H26.81A20.19,20.19,0,0,0,6.62,101.5v41c0,34.07,27.88,65,78.5,87.08,45.33,19.77,105.43,31.12,164.88,31.12s119.55-11.35,164.88-31.12c50.62-22.09,78.5-53,78.5-87.08v-41A20.19,20.19,0,0,0,473.19,81.31ZM87.65,118.72H51.46v17.17h29v17.26h-29v24.46H42.32c-9.86-10.7-15.47-22.46-15.47-35.07v-41h60.8Zm77.5,58.88H98.88V101.46h24.61v58.87h17.06V101.46h24.6Zm79.35,0H222.21L202.84,141.7v35.91H178.23V101.47h22.26l19.41,36v-36h24.6Zm72-58.83H298.44v58.83H273.83V118.78H255.74V101.46h60.79ZM394,134.47l-11.85,11.85L394,158.16v19.45H369.43V155H352.37v22.63H327.76V101.47H394Zm79.18,8c0,12.61-5.6,24.37-15.46,35.07h-8.9V159H431.79v18.57h-24.6V101.46h66Z"/></svg>