<svg id="Layer_1" data-name="Layer 1" xmlns="http://www.w3.org/2000/svg" viewBox="0 0 500 94.31"><defs><style>.cls-1{fill:#fc2740;}</style></defs><path class="cls-1" d="M421.37,5.64v83H448.2V68.34h18.61V88.59h26.57V5.64ZM448.2,49.45V24.4h18.61V49.45Z"/><polygon class="cls-1" points="85.17 5.64 85.17 88.67 157.44 88.66 157.44 5.64 130.61 5.64 130.61 69.83 112 69.83 112 5.64 85.17 5.64"/><polygon class="cls-1" points="256.21 5.64 256.21 24.53 275.94 24.53 275.94 88.67 302.78 88.67 302.78 24.53 322.51 24.53 322.51 5.64 256.21 5.64"/><path class="cls-1" d="M361.59,88.67V64h18.6V88.67H407V67.47L394.11,54.55,407,41.64v-36H334.76v83Zm0-64.19h18.6V45.11h-18.6Z"/><polygon class="cls-1" points="72.92 24.46 72.92 5.72 6.63 5.72 6.63 88.67 33.46 88.67 33.46 62 65.13 62 65.13 43.18 33.46 43.18 33.46 24.46 72.92 24.46"/><polygon class="cls-1" points="217.13 5.64 217.13 44.93 195.97 5.65 171.7 5.65 171.7 88.67 198.53 88.67 198.53 49.52 219.66 88.67 243.97 88.67 243.97 5.64 217.13 5.64"/></svg>