<svg id="Layer_1" data-name="Layer 1" xmlns="http://www.w3.org/2000/svg" viewBox="0 0 270.75 205.89"><defs><style>.cls-1{fill:#fc2740;}</style></defs><path class="cls-1" d="M186.37,110v91h29.44V178.79h20.42V201h29.14V110Zm29.44,48.06V130.58h20.42v27.48Z"/><polygon class="cls-1" points="91.35 4.79 91.35 95.89 170.64 95.87 170.64 4.79 141.2 4.79 141.2 75.21 120.79 75.21 120.79 4.79 91.35 4.79"/><polygon class="cls-1" points="5.18 110 5.18 130.72 26.83 130.72 26.83 201.1 56.27 201.1 56.27 130.72 77.92 130.72 77.92 110 5.18 110"/><path class="cls-1" d="M120.79,201.1V174H141.2V201.1h29.44V177.84l-14.17-14.17,14.17-14.17V110l-79.29,0V201.1Zm0-70.43H141.2V153.3H120.79Z"/><polygon class="cls-1" points="77.92 25.44 77.92 4.88 5.18 4.88 5.18 95.89 34.62 95.89 34.62 66.63 69.36 66.63 69.36 45.97 34.62 45.97 34.62 25.44 77.92 25.44"/><polygon class="cls-1" points="236.13 4.79 236.13 47.9 212.91 4.8 186.28 4.8 186.28 95.89 215.72 95.89 215.72 52.93 238.9 95.89 265.57 95.89 265.57 4.79 236.13 4.79"/></svg>