<svg id="Layer_1" data-name="Layer 1" xmlns="http://www.w3.org/2000/svg" viewBox="0 0 422.63 500"><defs><style>.cls-1{fill:#fff;}</style></defs><rect x="83.19" y="8.4" width="74.92" height="83.4" rx="21.49"/><rect x="253.4" y="8.4" width="74.92" height="83.4" rx="21.49" transform="translate(581.72 100.19) rotate(180)"/><path d="M382.27,124.14H40.36A31.92,31.92,0,0,0,8.44,156.06V363.61c0,68.42,90.83,128,202.87,128s202.88-59.57,202.88-128V156.06A31.92,31.92,0,0,0,382.27,124.14Z"/><polygon class="cls-1" points="153.77 156.48 153.77 267.94 257.35 267.92 257.35 156.48 218.75 156.48 218.75 240.83 192.37 240.83 192.37 156.48 153.77 156.48"/><polygon class="cls-1" points="136.15 183.56 136.15 156.48 40.71 156.48 40.71 267.94 79.31 267.94 79.31 237.56 124.94 237.56 124.94 210.48 79.31 210.48 79.31 183.56 136.15 183.56"/><polygon class="cls-1" points="343.24 156.49 343.24 208.7 313.17 156.49 278.25 156.5 278.25 267.94 316.85 267.94 316.85 215.79 346.93 267.94 381.91 267.94 381.91 156.48 343.24 156.49"/><path class="cls-1" d="M136.15,323.61V296.44H40.71v27.17H69.17v90.6a142.73,142.73,0,0,0,16.06,11.85,179.23,179.23,0,0,0,22.54,12.1V323.61Z"/><path class="cls-1" d="M218.75,386.76v72.45a272.67,272.67,0,0,0,38.61-3.81V391.76l-18.58-18.58,18.58-18.58V296.44l-103.59,0V453.17a268.55,268.55,0,0,0,38.6,5.48V386.76Zm-26.38-63.21h26.38v36H192.37Z"/><path class="cls-1" d="M278.25,296.46V451a224.19,224.19,0,0,0,38.6-13.68V386.76h26.39v35.37c23.71-16.7,37.56-36.81,38.6-56.18V296.44Zm65,63.13H316.85v-36h26.39Z"/></svg>