<svg id="Layer_1" data-name="Layer 1" xmlns="http://www.w3.org/2000/svg" viewBox="0 0 422.63 500"><defs><style>.cls-1{fill:#fc2740;}</style></defs><rect x="83.19" y="8.4" width="74.92" height="83.4" rx="21.49"/><rect x="253.4" y="8.4" width="74.92" height="83.4" rx="21.49" transform="translate(581.72 100.19) rotate(180)"/><rect class="cls-1" x="316.85" y="323.55" width="26.39" height="36.04"/><rect class="cls-1" x="192.37" y="323.55" width="26.38" height="36.04"/><path class="cls-1" d="M382.27,124.14H40.36A31.92,31.92,0,0,0,8.44,156.06V363.61c0,68.42,90.83,128,202.87,128s202.88-59.57,202.88-128V156.06A31.92,31.92,0,0,0,382.27,124.14ZM40.71,156.48h95.44v27.08H79.31v26.92h45.63v27.08H79.31v30.38H40.71Zm95.44,167.13H107.77V438.16a179.23,179.23,0,0,1-22.54-12.1,142.73,142.73,0,0,1-16.06-11.85v-90.6H40.71V296.44h95.44Zm17.62-167.13h38.6v84.35h26.38V156.48h38.6V267.92l-103.58,0ZM257.36,354.6l-18.58,18.58,18.58,18.58V455.4a272.67,272.67,0,0,1-38.61,3.81V386.76H192.37v71.89a268.55,268.55,0,0,1-38.6-5.48V296.46l103.59,0ZM381.84,366c-1,19.37-14.89,39.48-38.6,56.18V386.76H316.85v50.51A224.19,224.19,0,0,1,278.25,451V296.46l103.59,0Zm.07-98h-35l-30.08-52.15v52.15h-38.6V156.5h34.92l30.07,52.21V156.48h38.67Z"/></svg>